# xmcd
# 
# Track frame offsets:
#     150
#     27250
#     44475
#     64707
#     86075
#     107722
#     124387
#     148275
#     176400
#     192807
#     212175
#     226725
#     247725
#     279972
#     297802
# 
# Disc length: 4154
# 
# Revision: 3
# Processed by: cddbd v1.5.2PL0 Copyright (c) Steve Scherf et al.
# Submitted via: BonkEnc v1.0.6
# 
DISCID=d810380f
DTITLE=Don Covay and Friends - Adlib
DYEAR=2000
DGENRE=Soul
TTITLE0=Don Covay Boogie feat. Kim Simmonds
TTITLE1=Mercy Mercy feat. Paul Rodgers
TTITLE2=One Stop Woman
TTITLE3=Nine Times A Man feat. Wilson Pickett
TTITLE4=Chill Factory feat. Lee Konitz
TTITLE5=The Red Comb Song feat. Huey Lewis and Frederick Knight
TTITLE6=Chain Of Fools feat. Ann Peebles
TTITLE7=Victims feat. Syl Johnson
TTITLE8=B.Y.O.B.
TTITLE9=He Don't Know feat. Otis Clay
TTITLE10=Poontang
TTITLE11=Hall Of Fame feat. Dan Penn
TTITLE12=Podium
TTITLE13=Three Time Loser feat. Wilson Pickett
TTITLE14=Don Covay Boogie (Slight Reprise) feat. Kim Simmonds
EXTD=
EXTT0=Featuring Kim Simmonds
EXTT1=Featuring Paul Rodgers
EXTT2=
EXTT3=Featuring Wilson Pickett
EXTT4=Featuring Lee Konitz
EXTT5=Featuring Huey Lewis and Frederick Knight
EXTT6=Featuring Ann Peebles
EXTT7=Featuring Syl Johnson
EXTT8=
EXTT9=Featuring Otis Clay
EXTT10=
EXTT11=Featuring Dan Penn - Spoken Intro: Paul Shaffer
EXTT12=
EXTT13=Featuring Wilson Pickett
EXTT14=
PLAYORDER=
